<mxfile modified="2022-05-02T01:31:02.714Z" host="app.diagrams.net" agent="5.0 (Windows NT 10.0; Win64; x64) AppleWebKit/537.36 (KHTML, like Gecko) Chrome/100.0.4896.127 Safari/537.36 Edg/100.0.1185.50" etag="3E8kIKbvecsV5b3CznYh" compressed="false" version="17.5.0" type="google">
  <diagram name="System Context/Decisions/Technical" id="aj8iW2ekhm_xaF9eKUwm">
    <mxGraphModel grid="1" page="1" gridSize="10" guides="1" tooltips="1" connect="1" arrows="1" fold="1" pageScale="1" pageWidth="827" pageHeight="1169" math="0" shadow="0">
      <root>
        <mxCell id="r0cno2Tiryn2SZlx44Bz-0" />
        <mxCell id="r0cno2Tiryn2SZlx44Bz-109" value="Todo" style="" parent="r0cno2Tiryn2SZlx44Bz-0" />
        <mxCell id="Eg5daITTfeVHve2D2O8P-0" value="" style="shape=image;html=1;verticalAlign=top;verticalLabelPosition=bottom;labelBackgroundColor=#ffffff;imageAspect=0;aspect=fixed;image=https://cdn4.iconfinder.com/data/icons/feather/24/x-128.png;opacity=30;" vertex="1" parent="r0cno2Tiryn2SZlx44Bz-109">
          <mxGeometry x="260" y="570" width="40" height="40" as="geometry" />
        </mxCell>
        <mxCell id="Eg5daITTfeVHve2D2O8P-1" value="" style="shape=image;html=1;verticalAlign=top;verticalLabelPosition=bottom;labelBackgroundColor=#ffffff;imageAspect=0;aspect=fixed;image=https://cdn4.iconfinder.com/data/icons/feather/24/x-128.png;opacity=30;" vertex="1" parent="r0cno2Tiryn2SZlx44Bz-109">
          <mxGeometry x="260" y="520" width="40" height="40" as="geometry" />
        </mxCell>
        <mxCell id="r0cno2Tiryn2SZlx44Bz-19" value="Boxes" style="" parent="r0cno2Tiryn2SZlx44Bz-0" />
        <mxCell id="r0cno2Tiryn2SZlx44Bz-25" value="Hosting" style="rounded=0;whiteSpace=wrap;html=1;shadow=0;glass=0;comic=0;strokeColor=#666666;fillColor=#f5f5f5;fontSize=12;align=center;fontColor=#333333;" vertex="1" parent="r0cno2Tiryn2SZlx44Bz-19">
          <mxGeometry x="150" y="720" width="80" height="40" as="geometry" />
        </mxCell>
        <mxCell id="r0cno2Tiryn2SZlx44Bz-26" value="Managed&lt;br style=&quot;font-size: 12px;&quot;&gt;Data Center" style="rounded=0;whiteSpace=wrap;html=1;shadow=0;glass=0;comic=0;strokeColor=#B3B3B3;fillColor=none;fontSize=12;align=center;" vertex="1" parent="r0cno2Tiryn2SZlx44Bz-19">
          <mxGeometry x="330" y="720" width="80" height="40" as="geometry" />
        </mxCell>
        <mxCell id="r0cno2Tiryn2SZlx44Bz-27" value="Vendor&lt;br style=&quot;font-size: 12px;&quot;&gt;Managed&lt;br style=&quot;font-size: 12px;&quot;&gt;Data Center" style="rounded=0;whiteSpace=wrap;html=1;shadow=0;glass=0;comic=0;strokeColor=#B3B3B3;fillColor=none;fontSize=12;align=center;" vertex="1" parent="r0cno2Tiryn2SZlx44Bz-19">
          <mxGeometry x="240" y="720" width="80" height="40" as="geometry" />
        </mxCell>
        <mxCell id="r0cno2Tiryn2SZlx44Bz-28" value="Cloud" style="rounded=0;whiteSpace=wrap;html=1;shadow=0;glass=0;comic=0;strokeColor=#B3B3B3;fillColor=none;fontSize=12;align=center;" vertex="1" parent="r0cno2Tiryn2SZlx44Bz-19">
          <mxGeometry x="510" y="720" width="80" height="40" as="geometry" />
        </mxCell>
        <mxCell id="r0cno2Tiryn2SZlx44Bz-29" value="Vendor&lt;br style=&quot;font-size: 12px;&quot;&gt;Cloud" style="rounded=0;whiteSpace=wrap;html=1;shadow=0;glass=0;comic=0;strokeColor=#B3B3B3;fillColor=none;fontSize=12;align=center;" vertex="1" parent="r0cno2Tiryn2SZlx44Bz-19">
          <mxGeometry x="420" y="720" width="80" height="40" as="geometry" />
        </mxCell>
        <mxCell id="r0cno2Tiryn2SZlx44Bz-30" value="Platform" style="rounded=0;whiteSpace=wrap;html=1;shadow=0;glass=0;comic=0;strokeColor=#666666;fillColor=#f5f5f5;fontSize=12;align=center;fontColor=#333333;" vertex="1" parent="r0cno2Tiryn2SZlx44Bz-19">
          <mxGeometry x="150" y="670" width="80" height="40" as="geometry" />
        </mxCell>
        <mxCell id="r0cno2Tiryn2SZlx44Bz-31" value="N/A" style="rounded=0;whiteSpace=wrap;html=1;shadow=0;glass=0;comic=0;strokeColor=#B3B3B3;fillColor=none;fontSize=12;align=center;" vertex="1" parent="r0cno2Tiryn2SZlx44Bz-19">
          <mxGeometry x="240" y="670" width="80" height="40" as="geometry" />
        </mxCell>
        <mxCell id="r0cno2Tiryn2SZlx44Bz-32" value="PaaS" style="rounded=0;whiteSpace=wrap;html=1;shadow=0;glass=0;comic=0;strokeColor=#B3B3B3;fillColor=none;fontSize=12;align=center;" vertex="1" parent="r0cno2Tiryn2SZlx44Bz-19">
          <mxGeometry x="510" y="670" width="80" height="40" as="geometry" />
        </mxCell>
        <mxCell id="r0cno2Tiryn2SZlx44Bz-33" value="Containers" style="rounded=0;whiteSpace=wrap;html=1;shadow=0;glass=0;comic=0;strokeColor=#B3B3B3;fillColor=none;fontSize=12;align=center;" vertex="1" parent="r0cno2Tiryn2SZlx44Bz-19">
          <mxGeometry x="420" y="670" width="80" height="40" as="geometry" />
        </mxCell>
        <mxCell id="r0cno2Tiryn2SZlx44Bz-34" value="IaaS" style="rounded=0;whiteSpace=wrap;html=1;shadow=0;glass=0;comic=0;strokeColor=#B3B3B3;fillColor=none;fontSize=12;align=center;" vertex="1" parent="r0cno2Tiryn2SZlx44Bz-19">
          <mxGeometry x="330" y="670" width="80" height="40" as="geometry" />
        </mxCell>
        <mxCell id="r0cno2Tiryn2SZlx44Bz-35" value="IdP Protocol" style="rounded=0;whiteSpace=wrap;html=1;shadow=0;glass=0;comic=0;strokeColor=#666666;fillColor=#f5f5f5;fontSize=12;align=center;fontColor=#333333;" vertex="1" parent="r0cno2Tiryn2SZlx44Bz-19">
          <mxGeometry x="150" y="370" width="80" height="40" as="geometry" />
        </mxCell>
        <mxCell id="r0cno2Tiryn2SZlx44Bz-36" value="N/A &lt;br style=&quot;font-size: 12px;&quot;&gt;(in-system &lt;br style=&quot;font-size: 12px;&quot;&gt;User &amp;amp; Pwd)" style="rounded=0;whiteSpace=wrap;html=1;shadow=0;glass=0;comic=0;strokeColor=#B3B3B3;fillColor=none;fontSize=12;align=center;" vertex="1" parent="r0cno2Tiryn2SZlx44Bz-19">
          <mxGeometry x="240" y="370" width="80" height="40" as="geometry" />
        </mxCell>
        <mxCell id="r0cno2Tiryn2SZlx44Bz-37" value="SAML" style="rounded=0;whiteSpace=wrap;html=1;shadow=0;glass=0;comic=0;strokeColor=#B3B3B3;fillColor=none;fontSize=12;align=center;" vertex="1" parent="r0cno2Tiryn2SZlx44Bz-19">
          <mxGeometry x="330" y="370" width="80" height="40" as="geometry" />
        </mxCell>
        <mxCell id="r0cno2Tiryn2SZlx44Bz-38" value="OAuth" style="rounded=0;whiteSpace=wrap;html=1;shadow=0;glass=0;comic=0;strokeColor=#B3B3B3;fillColor=none;fontSize=12;align=center;" vertex="1" parent="r0cno2Tiryn2SZlx44Bz-19">
          <mxGeometry x="420" y="370" width="80" height="40" as="geometry" />
        </mxCell>
        <mxCell id="r0cno2Tiryn2SZlx44Bz-39" value="Service&lt;br&gt;Language Type" style="rounded=0;whiteSpace=wrap;html=1;shadow=0;glass=0;comic=0;strokeColor=#666666;fillColor=#f5f5f5;fontSize=12;align=center;fontColor=#333333;" vertex="1" parent="r0cno2Tiryn2SZlx44Bz-19">
          <mxGeometry x="150" y="420" width="80" height="40" as="geometry" />
        </mxCell>
        <mxCell id="r0cno2Tiryn2SZlx44Bz-40" value="N/A" style="rounded=0;whiteSpace=wrap;html=1;shadow=0;glass=0;comic=0;strokeColor=#B3B3B3;fillColor=none;fontSize=12;align=center;" vertex="1" parent="r0cno2Tiryn2SZlx44Bz-19">
          <mxGeometry x="240" y="420" width="80" height="40" as="geometry" />
        </mxCell>
        <mxCell id="r0cno2Tiryn2SZlx44Bz-41" value="Script" style="rounded=0;whiteSpace=wrap;html=1;shadow=0;glass=0;comic=0;strokeColor=#B3B3B3;fillColor=none;fontSize=12;align=center;" vertex="1" parent="r0cno2Tiryn2SZlx44Bz-19">
          <mxGeometry x="330" y="420" width="80" height="40" as="geometry" />
        </mxCell>
        <mxCell id="r0cno2Tiryn2SZlx44Bz-42" value="Transpiled" style="rounded=0;whiteSpace=wrap;html=1;shadow=0;glass=0;comic=0;strokeColor=#B3B3B3;fillColor=none;fontSize=12;align=center;" vertex="1" parent="r0cno2Tiryn2SZlx44Bz-19">
          <mxGeometry x="420" y="420" width="80" height="40" as="geometry" />
        </mxCell>
        <mxCell id="r0cno2Tiryn2SZlx44Bz-43" value="Compiled" style="rounded=0;whiteSpace=wrap;html=1;shadow=0;glass=0;comic=0;strokeColor=#B3B3B3;fillColor=none;fontSize=12;align=center;" vertex="1" parent="r0cno2Tiryn2SZlx44Bz-19">
          <mxGeometry x="510" y="420" width="80" height="40" as="geometry" />
        </mxCell>
        <mxCell id="r0cno2Tiryn2SZlx44Bz-44" value="Open Source" style="rounded=0;whiteSpace=wrap;html=1;shadow=0;glass=0;comic=0;strokeColor=#666666;fillColor=#f5f5f5;fontSize=12;align=center;fontColor=#333333;" vertex="1" parent="r0cno2Tiryn2SZlx44Bz-19">
          <mxGeometry x="150" y="470" width="80" height="40" as="geometry" />
        </mxCell>
        <mxCell id="r0cno2Tiryn2SZlx44Bz-45" value="Closed Source" style="rounded=0;whiteSpace=wrap;html=1;shadow=0;glass=0;comic=0;strokeColor=#B3B3B3;fillColor=none;fontSize=12;align=center;" vertex="1" parent="r0cno2Tiryn2SZlx44Bz-19">
          <mxGeometry x="240" y="470" width="80" height="40" as="geometry" />
        </mxCell>
        <mxCell id="r0cno2Tiryn2SZlx44Bz-46" value="N/A" style="rounded=0;whiteSpace=wrap;html=1;shadow=0;glass=0;comic=0;strokeColor=#B3B3B3;fillColor=none;fontSize=12;align=center;" vertex="1" parent="r0cno2Tiryn2SZlx44Bz-19">
          <mxGeometry x="240" y="120" width="80" height="40" as="geometry" />
        </mxCell>
        <mxCell id="r0cno2Tiryn2SZlx44Bz-47" value="Server-Side&lt;br style=&quot;font-size: 12px;&quot;&gt;MPA" style="rounded=0;whiteSpace=wrap;html=1;shadow=0;glass=0;comic=0;strokeColor=#B3B3B3;fillColor=none;fontSize=12;align=center;" vertex="1" parent="r0cno2Tiryn2SZlx44Bz-19">
          <mxGeometry x="330" y="120" width="80" height="40" as="geometry" />
        </mxCell>
        <mxCell id="r0cno2Tiryn2SZlx44Bz-48" value="Client-Side &lt;br style=&quot;font-size: 12px;&quot;&gt;SPA" style="rounded=0;whiteSpace=wrap;html=1;shadow=0;glass=0;comic=0;strokeColor=#B3B3B3;fillColor=none;fontSize=12;align=center;" vertex="1" parent="r0cno2Tiryn2SZlx44Bz-19">
          <mxGeometry x="420" y="120" width="80" height="40" as="geometry" />
        </mxCell>
        <mxCell id="r0cno2Tiryn2SZlx44Bz-49" value="Client-Side &lt;br style=&quot;font-size: 12px;&quot;&gt;PWA SPA" style="rounded=0;whiteSpace=wrap;html=1;shadow=0;glass=0;comic=0;strokeColor=#B3B3B3;fillColor=none;fontSize=12;align=center;" vertex="1" parent="r0cno2Tiryn2SZlx44Bz-19">
          <mxGeometry x="510" y="120" width="80" height="40" as="geometry" />
        </mxCell>
        <mxCell id="r0cno2Tiryn2SZlx44Bz-50" value="Presentation&lt;br style=&quot;font-size: 12px&quot;&gt;Layer&lt;br&gt;Architecture" style="rounded=0;whiteSpace=wrap;html=1;shadow=0;glass=0;comic=0;strokeColor=#666666;fillColor=#f5f5f5;fontSize=12;align=center;fontColor=#333333;" vertex="1" parent="r0cno2Tiryn2SZlx44Bz-19">
          <mxGeometry x="150" y="120" width="80" height="40" as="geometry" />
        </mxCell>
        <mxCell id="r0cno2Tiryn2SZlx44Bz-63" value="Integratable&lt;br style=&quot;font-size: 12px;&quot;&gt;Client Side&lt;br style=&quot;font-size: 12px;&quot;&gt;PWA SPA" style="rounded=0;whiteSpace=wrap;html=1;shadow=0;glass=0;comic=0;strokeColor=#B3B3B3;fillColor=none;fontSize=12;align=center;" vertex="1" parent="r0cno2Tiryn2SZlx44Bz-19">
          <mxGeometry x="600" y="120" width="80" height="40" as="geometry" />
        </mxCell>
        <mxCell id="r0cno2Tiryn2SZlx44Bz-64" value="Open Source&lt;br style=&quot;font-size: 12px;&quot;&gt;Support Available" style="rounded=0;whiteSpace=wrap;html=1;shadow=0;glass=0;comic=0;strokeColor=#B3B3B3;fillColor=none;fontSize=12;align=center;" vertex="1" parent="r0cno2Tiryn2SZlx44Bz-19">
          <mxGeometry x="330" y="470" width="80" height="40" as="geometry" />
        </mxCell>
        <mxCell id="r0cno2Tiryn2SZlx44Bz-70" value="Customizable" style="rounded=0;whiteSpace=wrap;html=1;shadow=0;glass=0;comic=0;strokeColor=#666666;fillColor=#f5f5f5;fontSize=12;align=center;fontColor=#333333;" vertex="1" parent="r0cno2Tiryn2SZlx44Bz-19">
          <mxGeometry x="149" y="170" width="80" height="40" as="geometry" />
        </mxCell>
        <mxCell id="r0cno2Tiryn2SZlx44Bz-71" value="N/A" style="rounded=0;whiteSpace=wrap;html=1;shadow=0;glass=0;comic=0;strokeColor=#B3B3B3;fillColor=none;fontSize=12;align=center;" vertex="1" parent="r0cno2Tiryn2SZlx44Bz-19">
          <mxGeometry x="239" y="170" width="80" height="40" as="geometry" />
        </mxCell>
        <mxCell id="r0cno2Tiryn2SZlx44Bz-73" value="Event &lt;br style=&quot;font-size: 12px;&quot;&gt;Scripting" style="rounded=0;whiteSpace=wrap;html=1;shadow=0;glass=0;comic=0;strokeColor=#B3B3B3;fillColor=none;fontSize=12;align=center;" vertex="1" parent="r0cno2Tiryn2SZlx44Bz-19">
          <mxGeometry x="509" y="170" width="80" height="40" as="geometry" />
        </mxCell>
        <mxCell id="r0cno2Tiryn2SZlx44Bz-84" value="SaaS" style="rounded=0;whiteSpace=wrap;html=1;shadow=0;glass=0;comic=0;strokeColor=#B3B3B3;fillColor=none;fontSize=12;align=center;" vertex="1" parent="r0cno2Tiryn2SZlx44Bz-19">
          <mxGeometry x="600" y="670" width="80" height="40" as="geometry" />
        </mxCell>
        <mxCell id="r0cno2Tiryn2SZlx44Bz-111" value="Configuration" style="rounded=0;whiteSpace=wrap;html=1;shadow=0;glass=0;comic=0;strokeColor=#B3B3B3;fillColor=none;fontSize=12;align=center;" vertex="1" parent="r0cno2Tiryn2SZlx44Bz-19">
          <mxGeometry x="329" y="170" width="80" height="40" as="geometry" />
        </mxCell>
        <mxCell id="r0cno2Tiryn2SZlx44Bz-112" value="Event &lt;br style=&quot;font-size: 12px;&quot;&gt;Webhooks" style="rounded=0;whiteSpace=wrap;html=1;shadow=0;glass=0;comic=0;strokeColor=#B3B3B3;fillColor=none;fontSize=12;align=center;" vertex="1" parent="r0cno2Tiryn2SZlx44Bz-19">
          <mxGeometry x="419" y="170" width="80" height="40" as="geometry" />
        </mxCell>
        <mxCell id="r0cno2Tiryn2SZlx44Bz-113" value="Custom&lt;br style=&quot;font-size: 12px;&quot;&gt;Extendable" style="rounded=0;whiteSpace=wrap;html=1;shadow=0;glass=0;comic=0;strokeColor=#B3B3B3;fillColor=none;fontSize=12;align=center;" vertex="1" parent="r0cno2Tiryn2SZlx44Bz-19">
          <mxGeometry x="599" y="170" width="80" height="40" as="geometry" />
        </mxCell>
        <mxCell id="r0cno2Tiryn2SZlx44Bz-115" value="&lt;p style=&quot;line-height: 100% ; font-size: 11px&quot;&gt;Closed Source&lt;br&gt;Reseller Support Available&lt;/p&gt;" style="rounded=0;whiteSpace=wrap;html=1;shadow=0;glass=0;comic=0;strokeColor=#B3B3B3;fillColor=none;fontSize=12;align=center;" vertex="1" parent="r0cno2Tiryn2SZlx44Bz-19">
          <mxGeometry x="420" y="470" width="80" height="40" as="geometry" />
        </mxCell>
        <mxCell id="r0cno2Tiryn2SZlx44Bz-116" value="&lt;p style=&quot;line-height: 90%&quot;&gt;Open Source&lt;br style=&quot;font-size: 12px&quot;&gt;&lt;font style=&quot;font-size: 12px&quot;&gt;Support not available &lt;/font&gt;&lt;font style=&quot;font-size: 12px&quot;&gt;(inhouse)&lt;/font&gt;&lt;/p&gt;" style="rounded=0;whiteSpace=wrap;html=1;shadow=0;glass=0;comic=0;strokeColor=#B3B3B3;fillColor=none;fontSize=12;align=center;" vertex="1" parent="r0cno2Tiryn2SZlx44Bz-19">
          <mxGeometry x="510" y="470" width="80" height="40" as="geometry" />
        </mxCell>
        <mxCell id="r0cno2Tiryn2SZlx44Bz-117" value="Support" style="rounded=0;whiteSpace=wrap;html=1;shadow=0;glass=0;comic=0;strokeColor=#666666;fillColor=#f5f5f5;fontSize=12;align=center;fontColor=#333333;" vertex="1" parent="r0cno2Tiryn2SZlx44Bz-19">
          <mxGeometry x="150" y="220" width="80" height="40" as="geometry" />
        </mxCell>
        <mxCell id="r0cno2Tiryn2SZlx44Bz-118" value="Support Available" style="rounded=0;whiteSpace=wrap;html=1;shadow=0;glass=0;comic=0;strokeColor=#B3B3B3;fillColor=none;fontSize=12;align=center;" vertex="1" parent="r0cno2Tiryn2SZlx44Bz-19">
          <mxGeometry x="330" y="220" width="80" height="40" as="geometry" />
        </mxCell>
        <mxCell id="r0cno2Tiryn2SZlx44Bz-120" value="Reseller &lt;br style=&quot;font-size: 12px;&quot;&gt;Support Available" style="rounded=0;whiteSpace=wrap;html=1;shadow=0;glass=0;comic=0;strokeColor=#B3B3B3;fillColor=none;fontSize=12;align=center;" vertex="1" parent="r0cno2Tiryn2SZlx44Bz-19">
          <mxGeometry x="420" y="220" width="80" height="40" as="geometry" />
        </mxCell>
        <mxCell id="r0cno2Tiryn2SZlx44Bz-121" value="Unsupported&lt;br style=&quot;font-size: 12px;&quot;&gt;(In-House)" style="rounded=0;whiteSpace=wrap;html=1;shadow=0;glass=0;comic=0;strokeColor=#B3B3B3;fillColor=none;fontSize=12;align=center;" vertex="1" parent="r0cno2Tiryn2SZlx44Bz-19">
          <mxGeometry x="510" y="220" width="80" height="40" as="geometry" />
        </mxCell>
        <mxCell id="r0cno2Tiryn2SZlx44Bz-123" value="Unsupportable" style="rounded=0;whiteSpace=wrap;html=1;shadow=0;glass=0;comic=0;strokeColor=#B3B3B3;fillColor=none;fontSize=12;align=center;" vertex="1" parent="r0cno2Tiryn2SZlx44Bz-19">
          <mxGeometry x="240" y="220" width="80" height="40" as="geometry" />
        </mxCell>
        <mxCell id="r0cno2Tiryn2SZlx44Bz-124" value="OIDC" style="rounded=0;whiteSpace=wrap;html=1;shadow=0;glass=0;comic=0;strokeColor=#B3B3B3;fillColor=none;fontSize=12;align=center;" vertex="1" parent="r0cno2Tiryn2SZlx44Bz-19">
          <mxGeometry x="510" y="370" width="80" height="40" as="geometry" />
        </mxCell>
        <mxCell id="r0cno2Tiryn2SZlx44Bz-126" value="User Provisioning" style="rounded=0;whiteSpace=wrap;html=1;shadow=0;glass=0;comic=0;strokeColor=#666666;fillColor=#f5f5f5;fontSize=12;align=center;fontColor=#333333;" vertex="1" parent="r0cno2Tiryn2SZlx44Bz-19">
          <mxGeometry x="150" y="270" width="80" height="40" as="geometry" />
        </mxCell>
        <mxCell id="r0cno2Tiryn2SZlx44Bz-128" value="Database&lt;br style=&quot;font-size: 12px;&quot;&gt;Migration" style="rounded=0;whiteSpace=wrap;html=1;shadow=0;glass=0;comic=0;strokeColor=#B3B3B3;fillColor=none;fontSize=12;align=center;" vertex="1" parent="r0cno2Tiryn2SZlx44Bz-19">
          <mxGeometry x="330" y="270" width="80" height="40" as="geometry" />
        </mxCell>
        <mxCell id="r0cno2Tiryn2SZlx44Bz-129" value="File&lt;br style=&quot;font-size: 12px;&quot;&gt;Upload" style="rounded=0;whiteSpace=wrap;html=1;shadow=0;glass=0;comic=0;strokeColor=#B3B3B3;fillColor=none;fontSize=12;align=center;" vertex="1" parent="r0cno2Tiryn2SZlx44Bz-19">
          <mxGeometry x="420" y="270" width="80" height="40" as="geometry" />
        </mxCell>
        <mxCell id="r0cno2Tiryn2SZlx44Bz-132" value="&lt;font style=&quot;font-size: 10px ; line-height: 90%&quot;&gt;&lt;span style=&quot;color: rgb(33 , 37 , 41) ; text-align: left ; background-color: rgb(255 , 255 , 255)&quot;&gt;System 4 Cross-domain Identity Mgmt (&lt;/span&gt;SCIM)&lt;/font&gt;" style="rounded=0;whiteSpace=wrap;html=1;shadow=0;glass=0;comic=0;strokeColor=#B3B3B3;fillColor=none;fontSize=12;align=center;" vertex="1" parent="r0cno2Tiryn2SZlx44Bz-19">
          <mxGeometry x="600" y="270" width="80" height="40" as="geometry" />
        </mxCell>
        <mxCell id="1bN2H3G_UTG3eil6F2lA-79" value="Disaster Recovery" style="rounded=0;whiteSpace=wrap;html=1;shadow=0;glass=0;comic=0;strokeColor=#666666;fillColor=#f5f5f5;fontSize=12;align=center;fontColor=#333333;" vertex="1" parent="r0cno2Tiryn2SZlx44Bz-19">
          <mxGeometry x="150" y="870" width="80" height="40" as="geometry" />
        </mxCell>
        <mxCell id="1bN2H3G_UTG3eil6F2lA-80" value="Backup" style="rounded=0;whiteSpace=wrap;html=1;shadow=0;glass=0;comic=0;strokeColor=#666666;fillColor=#f5f5f5;fontSize=12;align=center;fontColor=#333333;" vertex="1" parent="r0cno2Tiryn2SZlx44Bz-19">
          <mxGeometry x="150" y="820" width="80" height="40" as="geometry" />
        </mxCell>
        <mxCell id="1bN2H3G_UTG3eil6F2lA-81" value="Database" style="rounded=0;whiteSpace=wrap;html=1;shadow=0;glass=0;comic=0;strokeColor=#666666;fillColor=#f5f5f5;fontSize=12;align=center;fontColor=#333333;" vertex="1" parent="r0cno2Tiryn2SZlx44Bz-19">
          <mxGeometry x="150" y="770" width="80" height="40" as="geometry" />
        </mxCell>
        <mxCell id="1bN2H3G_UTG3eil6F2lA-82" value="System Delivery Management" style="rounded=0;whiteSpace=wrap;html=1;shadow=0;glass=0;comic=0;strokeColor=#666666;fillColor=#f5f5f5;fontSize=12;align=center;fontColor=#333333;" vertex="1" parent="r0cno2Tiryn2SZlx44Bz-19">
          <mxGeometry x="150" y="1080" width="80" height="40" as="geometry" />
        </mxCell>
        <mxCell id="1bN2H3G_UTG3eil6F2lA-83" value="N/A" style="rounded=0;whiteSpace=wrap;html=1;shadow=0;glass=0;comic=0;strokeColor=#B3B3B3;fillColor=none;fontSize=12;align=center;" vertex="1" parent="r0cno2Tiryn2SZlx44Bz-19">
          <mxGeometry x="240" y="870" width="80" height="40" as="geometry" />
        </mxCell>
        <mxCell id="1bN2H3G_UTG3eil6F2lA-84" value="Primary/&lt;br style=&quot;font-size: 12px;&quot;&gt;Secondary" style="rounded=0;whiteSpace=wrap;html=1;shadow=0;glass=0;comic=0;strokeColor=#B3B3B3;fillColor=none;fontSize=12;align=center;" vertex="1" parent="r0cno2Tiryn2SZlx44Bz-19">
          <mxGeometry x="330" y="870" width="80" height="40" as="geometry" />
        </mxCell>
        <mxCell id="1bN2H3G_UTG3eil6F2lA-85" value="N/A" style="rounded=0;whiteSpace=wrap;html=1;shadow=0;glass=0;comic=0;strokeColor=#B3B3B3;fillColor=none;fontSize=12;align=center;" vertex="1" parent="r0cno2Tiryn2SZlx44Bz-19">
          <mxGeometry x="240" y="820" width="80" height="40" as="geometry" />
        </mxCell>
        <mxCell id="1bN2H3G_UTG3eil6F2lA-86" value="Daily" style="rounded=0;whiteSpace=wrap;html=1;shadow=0;glass=0;comic=0;strokeColor=#B3B3B3;fillColor=none;fontSize=12;align=center;" vertex="1" parent="r0cno2Tiryn2SZlx44Bz-19">
          <mxGeometry x="330" y="820" width="80" height="40" as="geometry" />
        </mxCell>
        <mxCell id="1bN2H3G_UTG3eil6F2lA-87" value="Incremental" style="rounded=0;whiteSpace=wrap;html=1;shadow=0;glass=0;comic=0;strokeColor=#B3B3B3;fillColor=none;fontSize=12;align=center;" vertex="1" parent="r0cno2Tiryn2SZlx44Bz-19">
          <mxGeometry x="420" y="820" width="80" height="40" as="geometry" />
        </mxCell>
        <mxCell id="1bN2H3G_UTG3eil6F2lA-88" value="N/A" style="rounded=0;whiteSpace=wrap;html=1;shadow=0;glass=0;comic=0;strokeColor=#B3B3B3;fillColor=none;fontSize=12;align=center;" vertex="1" parent="r0cno2Tiryn2SZlx44Bz-19">
          <mxGeometry x="240" y="1080" width="80" height="40" as="geometry" />
        </mxCell>
        <mxCell id="1bN2H3G_UTG3eil6F2lA-89" value="ALM&lt;br&gt;(eg: MS DevOps)" style="rounded=0;whiteSpace=wrap;html=1;shadow=0;glass=0;comic=0;strokeColor=#B3B3B3;fillColor=none;fontSize=12;align=center;" vertex="1" parent="r0cno2Tiryn2SZlx44Bz-19">
          <mxGeometry x="330" y="1080" width="80" height="40" as="geometry" />
        </mxCell>
        <mxCell id="1bN2H3G_UTG3eil6F2lA-90" value="Other" style="rounded=0;whiteSpace=wrap;html=1;shadow=0;glass=0;comic=0;strokeColor=#B3B3B3;fillColor=none;fontSize=12;align=center;" vertex="1" parent="r0cno2Tiryn2SZlx44Bz-19">
          <mxGeometry x="420" y="1080" width="80" height="40" as="geometry" />
        </mxCell>
        <mxCell id="1bN2H3G_UTG3eil6F2lA-91" value="Sql Server" style="rounded=0;whiteSpace=wrap;html=1;shadow=0;glass=0;comic=0;strokeColor=#B3B3B3;fillColor=none;fontSize=12;align=center;" vertex="1" parent="r0cno2Tiryn2SZlx44Bz-19">
          <mxGeometry x="330" y="770" width="80" height="40" as="geometry" />
        </mxCell>
        <mxCell id="1bN2H3G_UTG3eil6F2lA-92" value="MariaDB" style="rounded=0;whiteSpace=wrap;html=1;shadow=0;glass=0;comic=0;strokeColor=#B3B3B3;fillColor=none;fontSize=12;align=center;" vertex="1" parent="r0cno2Tiryn2SZlx44Bz-19">
          <mxGeometry x="420" y="770" width="80" height="40" as="geometry" />
        </mxCell>
        <mxCell id="1bN2H3G_UTG3eil6F2lA-93" value="Oracle" style="rounded=0;whiteSpace=wrap;html=1;shadow=0;glass=0;comic=0;strokeColor=#B3B3B3;fillColor=none;fontSize=12;align=center;" vertex="1" parent="r0cno2Tiryn2SZlx44Bz-19">
          <mxGeometry x="510" y="770" width="80" height="40" as="geometry" />
        </mxCell>
        <mxCell id="1bN2H3G_UTG3eil6F2lA-94" value="Other" style="rounded=0;whiteSpace=wrap;html=1;shadow=0;glass=0;comic=0;strokeColor=#B3B3B3;fillColor=none;fontSize=12;align=center;" vertex="1" parent="r0cno2Tiryn2SZlx44Bz-19">
          <mxGeometry x="600" y="770" width="80" height="40" as="geometry" />
        </mxCell>
        <mxCell id="1bN2H3G_UTG3eil6F2lA-96" value="N/A" style="rounded=0;whiteSpace=wrap;html=1;shadow=0;glass=0;comic=0;strokeColor=#B3B3B3;fillColor=none;fontSize=12;align=center;" vertex="1" parent="r0cno2Tiryn2SZlx44Bz-19">
          <mxGeometry x="240" y="770" width="80" height="40" as="geometry" />
        </mxCell>
        <mxCell id="1bN2H3G_UTG3eil6F2lA-105" value="N/A" style="rounded=0;whiteSpace=wrap;html=1;shadow=0;glass=0;comic=0;strokeColor=#B3B3B3;fillColor=none;fontSize=12;align=center;" vertex="1" parent="r0cno2Tiryn2SZlx44Bz-19">
          <mxGeometry x="240" y="270" width="80" height="40" as="geometry" />
        </mxCell>
        <mxCell id="7DqjSQ6iT-ghYwTGYVtO-3" value="&lt;div style=&quot;text-align: left; font-size: 12px;&quot;&gt;&lt;font color=&quot;#212529&quot; style=&quot;font-size: 12px;&quot;&gt;&lt;span style=&quot;background-color: rgb(255, 255, 255); font-size: 12px;&quot;&gt;Manual&lt;/span&gt;&lt;/font&gt;&lt;/div&gt;" style="rounded=0;whiteSpace=wrap;html=1;shadow=0;glass=0;comic=0;strokeColor=#B3B3B3;fillColor=none;fontSize=12;align=center;" vertex="1" parent="r0cno2Tiryn2SZlx44Bz-19">
          <mxGeometry x="510" y="270" width="80" height="40" as="geometry" />
        </mxCell>
        <mxCell id="JHvD7qZu-fLtUCZEyD4a-0" value="Horizontally Scalable" style="rounded=0;whiteSpace=wrap;html=1;shadow=0;glass=0;comic=0;strokeColor=#666666;fillColor=#f5f5f5;fontSize=12;align=center;fontColor=#333333;" vertex="1" parent="r0cno2Tiryn2SZlx44Bz-19">
          <mxGeometry x="150" y="620" width="80" height="40" as="geometry" />
        </mxCell>
        <mxCell id="JHvD7qZu-fLtUCZEyD4a-1" value="N/A" style="rounded=0;whiteSpace=wrap;html=1;shadow=0;glass=0;comic=0;strokeColor=#B3B3B3;fillColor=none;fontSize=12;align=center;" vertex="1" parent="r0cno2Tiryn2SZlx44Bz-19">
          <mxGeometry x="240" y="620" width="80" height="40" as="geometry" />
        </mxCell>
        <mxCell id="JHvD7qZu-fLtUCZEyD4a-2" value="Fixed" style="rounded=0;whiteSpace=wrap;html=1;shadow=0;glass=0;comic=0;strokeColor=#B3B3B3;fillColor=none;fontSize=12;align=center;" vertex="1" parent="r0cno2Tiryn2SZlx44Bz-19">
          <mxGeometry x="330" y="620" width="80" height="40" as="geometry" />
        </mxCell>
        <mxCell id="JHvD7qZu-fLtUCZEyD4a-3" value="Dynamic" style="rounded=0;whiteSpace=wrap;html=1;shadow=0;glass=0;comic=0;strokeColor=#B3B3B3;fillColor=none;fontSize=12;align=center;" vertex="1" parent="r0cno2Tiryn2SZlx44Bz-19">
          <mxGeometry x="420" y="620" width="80" height="40" as="geometry" />
        </mxCell>
        <mxCell id="JCTgz20SG_82o1uuf6pO-0" value="Data Classification" style="rounded=0;whiteSpace=wrap;html=1;shadow=0;glass=0;comic=0;strokeColor=#666666;fillColor=#f5f5f5;fontSize=12;align=center;fontColor=#333333;" vertex="1" parent="r0cno2Tiryn2SZlx44Bz-19">
          <mxGeometry x="150" y="970" width="80" height="40" as="geometry" />
        </mxCell>
        <mxCell id="JCTgz20SG_82o1uuf6pO-1" value="&lt;font style=&quot;font-size: 10px&quot;&gt;UNCLASSIFIED&lt;/font&gt;" style="rounded=0;whiteSpace=wrap;html=1;shadow=0;glass=0;comic=0;strokeColor=#B3B3B3;fillColor=none;fontSize=12;align=center;" vertex="1" parent="r0cno2Tiryn2SZlx44Bz-19">
          <mxGeometry x="240" y="970" width="80" height="40" as="geometry" />
        </mxCell>
        <mxCell id="JCTgz20SG_82o1uuf6pO-2" value="&lt;font style=&quot;font-size: 9px&quot;&gt;IN-CONFIDENCE&lt;/font&gt;" style="rounded=0;whiteSpace=wrap;html=1;shadow=0;glass=0;comic=0;strokeColor=#B3B3B3;fillColor=none;fontSize=12;align=center;" vertex="1" parent="r0cno2Tiryn2SZlx44Bz-19">
          <mxGeometry x="330" y="970" width="80" height="40" as="geometry" />
        </mxCell>
        <mxCell id="JCTgz20SG_82o1uuf6pO-3" value="&lt;font style=&quot;font-size: 11px&quot;&gt;RESTRICTED&lt;/font&gt;" style="rounded=0;whiteSpace=wrap;html=1;shadow=0;glass=0;comic=0;strokeColor=#B3B3B3;fillColor=none;fontSize=12;align=center;" vertex="1" parent="r0cno2Tiryn2SZlx44Bz-19">
          <mxGeometry x="420" y="970" width="80" height="40" as="geometry" />
        </mxCell>
        <mxCell id="v1Fu7dboFkvKjdzp9F_i-0" value="In-Country" style="rounded=0;whiteSpace=wrap;html=1;shadow=0;glass=0;comic=0;strokeColor=#B3B3B3;fillColor=none;fontSize=12;align=center;" vertex="1" parent="r0cno2Tiryn2SZlx44Bz-19">
          <mxGeometry x="240" y="920" width="80" height="40" as="geometry" />
        </mxCell>
        <mxCell id="v1Fu7dboFkvKjdzp9F_i-1" value="Data&lt;br style=&quot;font-size: 12px;&quot;&gt;Storage Location" style="rounded=0;whiteSpace=wrap;html=1;shadow=0;glass=0;comic=0;strokeColor=#666666;fillColor=#f5f5f5;fontSize=12;align=center;fontColor=#333333;" vertex="1" parent="r0cno2Tiryn2SZlx44Bz-19">
          <mxGeometry x="150" y="920" width="80" height="40" as="geometry" />
        </mxCell>
        <mxCell id="v1Fu7dboFkvKjdzp9F_i-2" value="Controlled&lt;br style=&quot;font-size: 12px;&quot;&gt;Near-Shore" style="rounded=0;whiteSpace=wrap;html=1;shadow=0;glass=0;comic=0;strokeColor=#B3B3B3;fillColor=none;fontSize=12;align=center;" vertex="1" parent="r0cno2Tiryn2SZlx44Bz-19">
          <mxGeometry x="330" y="920" width="80" height="40" as="geometry" />
        </mxCell>
        <mxCell id="v1Fu7dboFkvKjdzp9F_i-3" value="Near-Shore" style="rounded=0;whiteSpace=wrap;html=1;shadow=0;glass=0;comic=0;strokeColor=#B3B3B3;fillColor=none;fontSize=12;align=center;" vertex="1" parent="r0cno2Tiryn2SZlx44Bz-19">
          <mxGeometry x="420" y="920" width="80" height="40" as="geometry" />
        </mxCell>
        <mxCell id="v1Fu7dboFkvKjdzp9F_i-4" value="Global" style="rounded=0;whiteSpace=wrap;html=1;shadow=0;glass=0;comic=0;strokeColor=#B3B3B3;fillColor=none;fontSize=12;align=center;" vertex="1" parent="r0cno2Tiryn2SZlx44Bz-19">
          <mxGeometry x="510" y="920" width="80" height="40" as="geometry" />
        </mxCell>
        <mxCell id="hBeJ3t3HhR0Att7BXB8c-0" value="Unsupported&lt;br style=&quot;font-size: 12px&quot;&gt;(Intuitive)" style="rounded=0;whiteSpace=wrap;html=1;shadow=0;glass=0;comic=0;strokeColor=#B3B3B3;fillColor=none;fontSize=12;align=center;" vertex="1" parent="r0cno2Tiryn2SZlx44Bz-19">
          <mxGeometry x="600" y="220" width="80" height="40" as="geometry" />
        </mxCell>
        <mxCell id="6PDKyxyeMk6WebZut7iy-1" value="Delivery" style="rounded=0;whiteSpace=wrap;html=1;shadow=0;glass=0;comic=0;strokeColor=#666666;fillColor=#f5f5f5;fontSize=12;align=center;fontColor=#333333;rotation=-90;" vertex="1" parent="r0cno2Tiryn2SZlx44Bz-19">
          <mxGeometry x="85" y="1065" width="90" height="20" as="geometry" />
        </mxCell>
        <mxCell id="6PDKyxyeMk6WebZut7iy-2" value="Storage" style="rounded=0;whiteSpace=wrap;html=1;shadow=0;glass=0;comic=0;strokeColor=#666666;fillColor=#f5f5f5;fontSize=12;align=center;fontColor=#333333;rotation=-90;" vertex="1" parent="r0cno2Tiryn2SZlx44Bz-19">
          <mxGeometry x="10" y="880" width="240" height="20" as="geometry" />
        </mxCell>
        <mxCell id="6PDKyxyeMk6WebZut7iy-4" value="Infrastructure" style="rounded=0;whiteSpace=wrap;html=1;shadow=0;glass=0;comic=0;strokeColor=#666666;fillColor=#f5f5f5;fontSize=12;align=center;fontColor=#333333;rotation=-90;" vertex="1" parent="r0cno2Tiryn2SZlx44Bz-19">
          <mxGeometry x="10.629999999999999" y="630.63" width="238.75" height="20" as="geometry" />
        </mxCell>
        <mxCell id="6PDKyxyeMk6WebZut7iy-5" value="Programming" style="rounded=0;whiteSpace=wrap;html=1;shadow=0;glass=0;comic=0;strokeColor=#666666;fillColor=#f5f5f5;fontSize=12;align=center;fontColor=#333333;rotation=-90;" vertex="1" parent="r0cno2Tiryn2SZlx44Bz-19">
          <mxGeometry x="85" y="455" width="90" height="20" as="geometry" />
        </mxCell>
        <mxCell id="6PDKyxyeMk6WebZut7iy-6" value="Deployment" style="rounded=0;whiteSpace=wrap;html=1;shadow=0;glass=0;comic=0;strokeColor=#666666;fillColor=#f5f5f5;fontSize=12;align=center;fontColor=#333333;" vertex="1" parent="r0cno2Tiryn2SZlx44Bz-19">
          <mxGeometry x="150" y="570" width="80" height="40" as="geometry" />
        </mxCell>
        <mxCell id="6PDKyxyeMk6WebZut7iy-7" value="Manual" style="rounded=0;whiteSpace=wrap;html=1;shadow=0;glass=0;comic=0;strokeColor=#B3B3B3;fillColor=none;fontSize=12;align=center;" vertex="1" parent="r0cno2Tiryn2SZlx44Bz-19">
          <mxGeometry x="240" y="570" width="80" height="40" as="geometry" />
        </mxCell>
        <mxCell id="6PDKyxyeMk6WebZut7iy-8" value="Adhoc/&lt;br&gt;Scripted" style="rounded=0;whiteSpace=wrap;html=1;shadow=0;glass=0;comic=0;strokeColor=#B3B3B3;fillColor=none;fontSize=12;align=center;" vertex="1" parent="r0cno2Tiryn2SZlx44Bz-19">
          <mxGeometry x="330" y="570" width="80" height="40" as="geometry" />
        </mxCell>
        <mxCell id="6PDKyxyeMk6WebZut7iy-9" value="Infrastructure as Code (IaC)" style="rounded=0;whiteSpace=wrap;html=1;shadow=0;glass=0;comic=0;strokeColor=#B3B3B3;fillColor=none;fontSize=12;align=center;" vertex="1" parent="r0cno2Tiryn2SZlx44Bz-19">
          <mxGeometry x="420" y="570" width="80" height="40" as="geometry" />
        </mxCell>
        <mxCell id="6PDKyxyeMk6WebZut7iy-10" value="Stateful &lt;br&gt;IaC" style="rounded=0;whiteSpace=wrap;html=1;shadow=0;glass=0;comic=0;strokeColor=#B3B3B3;fillColor=none;fontSize=12;align=center;" vertex="1" parent="r0cno2Tiryn2SZlx44Bz-19">
          <mxGeometry x="600" y="570" width="80" height="40" as="geometry" />
        </mxCell>
        <mxCell id="6PDKyxyeMk6WebZut7iy-11" value="Idempotent IaC" style="rounded=0;whiteSpace=wrap;html=1;shadow=0;glass=0;comic=0;strokeColor=#B3B3B3;fillColor=none;fontSize=12;align=center;" vertex="1" parent="r0cno2Tiryn2SZlx44Bz-19">
          <mxGeometry x="510" y="570" width="80" height="40" as="geometry" />
        </mxCell>
        <mxCell id="6PDKyxyeMk6WebZut7iy-13" value="Confidential Keys" style="rounded=0;whiteSpace=wrap;html=1;shadow=0;glass=0;comic=0;strokeColor=#666666;fillColor=#f5f5f5;fontSize=12;align=center;fontColor=#333333;" vertex="1" parent="r0cno2Tiryn2SZlx44Bz-19">
          <mxGeometry x="150" y="520" width="80" height="40" as="geometry" />
        </mxCell>
        <mxCell id="6PDKyxyeMk6WebZut7iy-14" value="Insecure Manual//Adhoc&lt;br&gt;Excel/Email" style="rounded=0;whiteSpace=wrap;html=1;shadow=0;glass=0;comic=0;strokeColor=#B3B3B3;fillColor=none;fontSize=12;align=center;" vertex="1" parent="r0cno2Tiryn2SZlx44Bz-19">
          <mxGeometry x="240" y="520" width="80" height="40" as="geometry" />
        </mxCell>
        <mxCell id="6PDKyxyeMk6WebZut7iy-15" value="In Code Base" style="rounded=0;whiteSpace=wrap;html=1;shadow=0;glass=0;comic=0;strokeColor=#B3B3B3;fillColor=none;fontSize=12;align=center;" vertex="1" parent="r0cno2Tiryn2SZlx44Bz-19">
          <mxGeometry x="330" y="520" width="80" height="40" as="geometry" />
        </mxCell>
        <mxCell id="6PDKyxyeMk6WebZut7iy-16" value="Common&lt;br&gt;Secure KeyVaults" style="rounded=0;whiteSpace=wrap;html=1;shadow=0;glass=0;comic=0;strokeColor=#B3B3B3;fillColor=none;fontSize=12;align=center;" vertex="1" parent="r0cno2Tiryn2SZlx44Bz-19">
          <mxGeometry x="420" y="520" width="80" height="40" as="geometry" />
        </mxCell>
        <mxCell id="6PDKyxyeMk6WebZut7iy-17" value="Pipeline Secure Storage" style="rounded=0;whiteSpace=wrap;html=1;shadow=0;glass=0;comic=0;strokeColor=#B3B3B3;fillColor=none;fontSize=12;align=center;" vertex="1" parent="r0cno2Tiryn2SZlx44Bz-19">
          <mxGeometry x="510" y="520" width="80" height="40" as="geometry" />
        </mxCell>
        <mxCell id="Eg5daITTfeVHve2D2O8P-3" value="Integration" style="rounded=0;whiteSpace=wrap;html=1;shadow=0;glass=0;comic=0;strokeColor=#666666;fillColor=#f5f5f5;fontSize=12;align=center;fontColor=#333333;rotation=-90;" vertex="1" parent="r0cno2Tiryn2SZlx44Bz-19">
          <mxGeometry x="85.63" y="355.63" width="88.75" height="20" as="geometry" />
        </mxCell>
        <mxCell id="Eg5daITTfeVHve2D2O8P-4" value="User Issue Management" style="rounded=0;whiteSpace=wrap;html=1;shadow=0;glass=0;comic=0;strokeColor=#666666;fillColor=#f5f5f5;fontSize=12;align=center;fontColor=#333333;" vertex="1" parent="r0cno2Tiryn2SZlx44Bz-19">
          <mxGeometry x="150" y="1030" width="80" height="40" as="geometry" />
        </mxCell>
        <mxCell id="Eg5daITTfeVHve2D2O8P-5" value="N/A" style="rounded=0;whiteSpace=wrap;html=1;shadow=0;glass=0;comic=0;strokeColor=#B3B3B3;fillColor=none;fontSize=12;align=center;" vertex="1" parent="r0cno2Tiryn2SZlx44Bz-19">
          <mxGeometry x="240" y="1030" width="80" height="40" as="geometry" />
        </mxCell>
        <mxCell id="Eg5daITTfeVHve2D2O8P-6" value="GitHub" style="rounded=0;whiteSpace=wrap;html=1;shadow=0;glass=0;comic=0;strokeColor=#B3B3B3;fillColor=none;fontSize=12;align=center;" vertex="1" parent="r0cno2Tiryn2SZlx44Bz-19">
          <mxGeometry x="330" y="1030" width="80" height="40" as="geometry" />
        </mxCell>
        <mxCell id="Eg5daITTfeVHve2D2O8P-7" value="JIRA" style="rounded=0;whiteSpace=wrap;html=1;shadow=0;glass=0;comic=0;strokeColor=#B3B3B3;fillColor=none;fontSize=12;align=center;" vertex="1" parent="r0cno2Tiryn2SZlx44Bz-19">
          <mxGeometry x="420" y="1030" width="80" height="40" as="geometry" />
        </mxCell>
        <mxCell id="Eg5daITTfeVHve2D2O8P-8" value="Other" style="rounded=0;whiteSpace=wrap;html=1;shadow=0;glass=0;comic=0;strokeColor=#B3B3B3;fillColor=none;fontSize=12;align=center;" vertex="1" parent="r0cno2Tiryn2SZlx44Bz-19">
          <mxGeometry x="510" y="1030" width="80" height="40" as="geometry" />
        </mxCell>
        <mxCell id="Eg5daITTfeVHve2D2O8P-9" value="Experience" style="rounded=0;whiteSpace=wrap;html=1;shadow=0;glass=0;comic=0;strokeColor=#666666;fillColor=#f5f5f5;fontSize=12;align=center;fontColor=#333333;rotation=-90;" vertex="1" parent="r0cno2Tiryn2SZlx44Bz-19">
          <mxGeometry x="83.75" y="203.75" width="92.5" height="20" as="geometry" />
        </mxCell>
        <mxCell id="Eg5daITTfeVHve2D2O8P-10" value="Service Client" style="rounded=0;whiteSpace=wrap;html=1;shadow=0;glass=0;comic=0;strokeColor=#666666;fillColor=#f5f5f5;fontSize=12;align=center;fontColor=#333333;rotation=-90;" vertex="1" parent="r0cno2Tiryn2SZlx44Bz-19">
          <mxGeometry x="85.95" y="105.94999999999999" width="88.12" height="20" as="geometry" />
        </mxCell>
        <mxCell id="Eg5daITTfeVHve2D2O8P-11" value="N/A" style="rounded=0;whiteSpace=wrap;html=1;shadow=0;glass=0;comic=0;strokeColor=#B3B3B3;fillColor=none;fontSize=12;align=center;" vertex="1" parent="r0cno2Tiryn2SZlx44Bz-19">
          <mxGeometry x="240" y="70" width="80" height="40" as="geometry" />
        </mxCell>
        <mxCell id="Eg5daITTfeVHve2D2O8P-12" value="Manual/Custom" style="rounded=0;whiteSpace=wrap;html=1;shadow=0;glass=0;comic=0;strokeColor=#B3B3B3;fillColor=none;fontSize=12;align=center;" vertex="1" parent="r0cno2Tiryn2SZlx44Bz-19">
          <mxGeometry x="330" y="70" width="80" height="40" as="geometry" />
        </mxCell>
        <mxCell id="Eg5daITTfeVHve2D2O8P-13" value="Compiled @ Deployment" style="rounded=0;whiteSpace=wrap;html=1;shadow=0;glass=0;comic=0;strokeColor=#B3B3B3;fillColor=none;fontSize=12;align=center;" vertex="1" parent="r0cno2Tiryn2SZlx44Bz-19">
          <mxGeometry x="510" y="70" width="80" height="40" as="geometry" />
        </mxCell>
        <mxCell id="Eg5daITTfeVHve2D2O8P-15" value="Styling" style="rounded=0;whiteSpace=wrap;html=1;shadow=0;glass=0;comic=0;strokeColor=#666666;fillColor=#f5f5f5;fontSize=12;align=center;fontColor=#333333;" vertex="1" parent="r0cno2Tiryn2SZlx44Bz-19">
          <mxGeometry x="150" y="70" width="80" height="40" as="geometry" />
        </mxCell>
        <mxCell id="Eg5daITTfeVHve2D2O8P-18" value="Framework&lt;br&gt;Based" style="rounded=0;whiteSpace=wrap;html=1;shadow=0;glass=0;comic=0;strokeColor=#B3B3B3;fillColor=none;fontSize=12;align=center;" vertex="1" parent="r0cno2Tiryn2SZlx44Bz-19">
          <mxGeometry x="420" y="70" width="80" height="40" as="geometry" />
        </mxCell>
        <mxCell id="Eg5daITTfeVHve2D2O8P-20" value="Compiled @ Runtime" style="rounded=0;whiteSpace=wrap;html=1;shadow=0;glass=0;comic=0;strokeColor=#B3B3B3;fillColor=none;fontSize=12;align=center;" vertex="1" parent="r0cno2Tiryn2SZlx44Bz-19">
          <mxGeometry x="600" y="70" width="80" height="40" as="geometry" />
        </mxCell>
        <mxCell id="XAuNiWu61X2S_vZJ7h-5-0" value="API" style="rounded=0;whiteSpace=wrap;html=1;shadow=0;glass=0;comic=0;strokeColor=#666666;fillColor=#f5f5f5;fontSize=12;align=center;fontColor=#333333;" vertex="1" parent="r0cno2Tiryn2SZlx44Bz-19">
          <mxGeometry x="150" y="320" width="80" height="40" as="geometry" />
        </mxCell>
        <mxCell id="XAuNiWu61X2S_vZJ7h-5-1" value="N/A" style="rounded=0;whiteSpace=wrap;html=1;shadow=0;glass=0;comic=0;strokeColor=#B3B3B3;fillColor=none;fontSize=12;align=center;" vertex="1" parent="r0cno2Tiryn2SZlx44Bz-19">
          <mxGeometry x="240" y="320" width="80" height="40" as="geometry" />
        </mxCell>
        <mxCell id="XAuNiWu61X2S_vZJ7h-5-2" value="Custom" style="rounded=0;whiteSpace=wrap;html=1;shadow=0;glass=0;comic=0;strokeColor=#B3B3B3;fillColor=none;fontSize=12;align=center;" vertex="1" parent="r0cno2Tiryn2SZlx44Bz-19">
          <mxGeometry x="330" y="320" width="80" height="40" as="geometry" />
        </mxCell>
        <mxCell id="XAuNiWu61X2S_vZJ7h-5-3" value="REST" style="rounded=0;whiteSpace=wrap;html=1;shadow=0;glass=0;comic=0;strokeColor=#B3B3B3;fillColor=none;fontSize=12;align=center;" vertex="1" parent="r0cno2Tiryn2SZlx44Bz-19">
          <mxGeometry x="420" y="320" width="80" height="40" as="geometry" />
        </mxCell>
        <mxCell id="XAuNiWu61X2S_vZJ7h-5-4" value="Queryable" style="rounded=0;whiteSpace=wrap;html=1;shadow=0;glass=0;comic=0;strokeColor=#B3B3B3;fillColor=none;fontSize=12;align=center;" vertex="1" parent="r0cno2Tiryn2SZlx44Bz-19">
          <mxGeometry x="510" y="320" width="80" height="40" as="geometry" />
        </mxCell>
        <mxCell id="XAuNiWu61X2S_vZJ7h-5-5" value="Setup" style="rounded=0;whiteSpace=wrap;html=1;shadow=0;glass=0;comic=0;strokeColor=#666666;fillColor=#f5f5f5;fontSize=12;align=center;fontColor=#333333;rotation=-90;" vertex="1" parent="r0cno2Tiryn2SZlx44Bz-19">
          <mxGeometry x="107.82" y="283.45" width="44.38" height="20" as="geometry" />
        </mxCell>
        <mxCell id="r0cno2Tiryn2SZlx44Bz-92" value="Overlays" style="" parent="r0cno2Tiryn2SZlx44Bz-0" />
        <mxCell id="rmL1Lhl-SqHxfNYzIl7R-0" value="" style="rounded=0;whiteSpace=wrap;html=1;shadow=0;glass=0;comic=0;strokeColor=#000000;fillColor=#E6E6E6;fontSize=12;align=center;strokeWidth=6;opacity=30;" vertex="1" parent="r0cno2Tiryn2SZlx44Bz-92">
          <mxGeometry x="330" y="970" width="80" height="40" as="geometry" />
        </mxCell>
        <mxCell id="q_aqlUetxc6UvHWgtf-M-1" value="" style="rounded=0;whiteSpace=wrap;html=1;shadow=0;glass=0;comic=0;strokeColor=#000000;fillColor=#E6E6E6;fontSize=12;align=center;strokeWidth=6;opacity=30;" vertex="1" parent="r0cno2Tiryn2SZlx44Bz-92">
          <mxGeometry x="330" y="220" width="80" height="40" as="geometry" />
        </mxCell>
        <mxCell id="q_aqlUetxc6UvHWgtf-M-2" value="" style="rounded=0;whiteSpace=wrap;html=1;shadow=0;glass=0;comic=0;strokeColor=#000000;fillColor=#E6E6E6;fontSize=12;align=center;strokeWidth=6;opacity=30;" vertex="1" parent="r0cno2Tiryn2SZlx44Bz-92">
          <mxGeometry x="239" y="170" width="80" height="40" as="geometry" />
        </mxCell>
        <mxCell id="q_aqlUetxc6UvHWgtf-M-3" value="" style="rounded=0;whiteSpace=wrap;html=1;shadow=0;glass=0;comic=0;strokeColor=#000000;fillColor=#E6E6E6;fontSize=12;align=center;strokeWidth=6;opacity=30;" vertex="1" parent="r0cno2Tiryn2SZlx44Bz-92">
          <mxGeometry x="420" y="370" width="80" height="40" as="geometry" />
        </mxCell>
        <mxCell id="q_aqlUetxc6UvHWgtf-M-4" value="" style="rounded=0;whiteSpace=wrap;html=1;shadow=0;glass=0;comic=0;strokeColor=#000000;fillColor=#E6E6E6;fontSize=12;align=center;strokeWidth=6;opacity=30;" vertex="1" parent="r0cno2Tiryn2SZlx44Bz-92">
          <mxGeometry x="510" y="370" width="80" height="40" as="geometry" />
        </mxCell>
        <mxCell id="q_aqlUetxc6UvHWgtf-M-5" value="" style="rounded=0;whiteSpace=wrap;html=1;shadow=0;glass=0;comic=0;strokeColor=#000000;fillColor=#E6E6E6;fontSize=12;align=center;strokeWidth=6;opacity=30;" vertex="1" parent="r0cno2Tiryn2SZlx44Bz-92">
          <mxGeometry x="600" y="670" width="80" height="40" as="geometry" />
        </mxCell>
        <mxCell id="q_aqlUetxc6UvHWgtf-M-6" value="" style="rounded=0;whiteSpace=wrap;html=1;shadow=0;glass=0;comic=0;strokeColor=#000000;fillColor=#E6E6E6;fontSize=12;align=center;strokeWidth=6;opacity=30;" vertex="1" parent="r0cno2Tiryn2SZlx44Bz-92">
          <mxGeometry x="510" y="720" width="80" height="40" as="geometry" />
        </mxCell>
        <mxCell id="q_aqlUetxc6UvHWgtf-M-7" value="" style="rounded=0;whiteSpace=wrap;html=1;shadow=0;glass=0;comic=0;strokeColor=#000000;fillColor=#E6E6E6;fontSize=12;align=center;strokeWidth=6;opacity=30;" vertex="1" parent="r0cno2Tiryn2SZlx44Bz-92">
          <mxGeometry x="510" y="120" width="80" height="40" as="geometry" />
        </mxCell>
        <mxCell id="q_aqlUetxc6UvHWgtf-M-8" value="" style="rounded=0;whiteSpace=wrap;html=1;shadow=0;glass=0;comic=0;strokeColor=#000000;fillColor=#E6E6E6;fontSize=12;align=center;strokeWidth=6;opacity=30;" vertex="1" parent="r0cno2Tiryn2SZlx44Bz-92">
          <mxGeometry x="510" y="470" width="80" height="40" as="geometry" />
        </mxCell>
        <mxCell id="q_aqlUetxc6UvHWgtf-M-9" value="" style="rounded=0;whiteSpace=wrap;html=1;shadow=0;glass=0;comic=0;strokeColor=#000000;fillColor=#E6E6E6;fontSize=12;align=center;strokeWidth=6;opacity=30;" vertex="1" parent="r0cno2Tiryn2SZlx44Bz-92">
          <mxGeometry x="510" y="270" width="80" height="40" as="geometry" />
        </mxCell>
        <mxCell id="q_aqlUetxc6UvHWgtf-M-10" value="" style="rounded=0;whiteSpace=wrap;html=1;shadow=0;glass=0;comic=0;strokeColor=#000000;fillColor=#E6E6E6;fontSize=12;align=center;strokeWidth=6;opacity=30;" vertex="1" parent="r0cno2Tiryn2SZlx44Bz-92">
          <mxGeometry x="510" y="420" width="80" height="40" as="geometry" />
        </mxCell>
        <mxCell id="q_aqlUetxc6UvHWgtf-M-11" value="" style="rounded=0;whiteSpace=wrap;html=1;shadow=0;glass=0;comic=0;strokeColor=#000000;fillColor=#E6E6E6;fontSize=12;align=center;strokeWidth=6;opacity=30;" vertex="1" parent="r0cno2Tiryn2SZlx44Bz-92">
          <mxGeometry x="600" y="270" width="80" height="40" as="geometry" />
        </mxCell>
        <mxCell id="q_aqlUetxc6UvHWgtf-M-12" value="" style="rounded=0;whiteSpace=wrap;html=1;shadow=0;glass=0;comic=0;strokeColor=#000000;fillColor=#E6E6E6;fontSize=12;align=center;strokeWidth=6;opacity=30;" vertex="1" parent="r0cno2Tiryn2SZlx44Bz-92">
          <mxGeometry x="420" y="820" width="80" height="40" as="geometry" />
        </mxCell>
        <mxCell id="q_aqlUetxc6UvHWgtf-M-14" value="" style="rounded=0;whiteSpace=wrap;html=1;shadow=0;glass=0;comic=0;strokeColor=#000000;fillColor=#E6E6E6;fontSize=12;align=center;strokeWidth=6;opacity=30;" vertex="1" parent="r0cno2Tiryn2SZlx44Bz-92">
          <mxGeometry x="240" y="870" width="80" height="40" as="geometry" />
        </mxCell>
        <mxCell id="q_aqlUetxc6UvHWgtf-M-15" value="" style="rounded=0;whiteSpace=wrap;html=1;shadow=0;glass=0;comic=0;strokeColor=#000000;fillColor=#E6E6E6;fontSize=12;align=center;strokeWidth=6;opacity=30;" vertex="1" parent="r0cno2Tiryn2SZlx44Bz-92">
          <mxGeometry x="330" y="770" width="80" height="40" as="geometry" />
        </mxCell>
        <mxCell id="q_aqlUetxc6UvHWgtf-M-16" value="" style="rounded=0;whiteSpace=wrap;html=1;shadow=0;glass=0;comic=0;strokeColor=#000000;fillColor=#E6E6E6;fontSize=12;align=center;strokeWidth=6;opacity=30;" vertex="1" parent="r0cno2Tiryn2SZlx44Bz-92">
          <mxGeometry x="330" y="1080" width="80" height="40" as="geometry" />
        </mxCell>
        <mxCell id="q_aqlUetxc6UvHWgtf-M-0" value="" style="rounded=0;whiteSpace=wrap;html=1;shadow=0;glass=0;comic=0;strokeColor=#000000;fillColor=#E6E6E6;fontSize=12;align=center;strokeWidth=6;opacity=30;" vertex="1" parent="r0cno2Tiryn2SZlx44Bz-92">
          <mxGeometry x="423" y="920" width="80" height="40" as="geometry" />
        </mxCell>
        <mxCell id="6PDKyxyeMk6WebZut7iy-12" value="" style="rounded=0;whiteSpace=wrap;html=1;shadow=0;glass=0;comic=0;strokeColor=#000000;fillColor=#E6E6E6;fontSize=12;align=center;strokeWidth=6;opacity=30;" vertex="1" parent="r0cno2Tiryn2SZlx44Bz-92">
          <mxGeometry x="510" y="570" width="80" height="40" as="geometry" />
        </mxCell>
        <mxCell id="r0cno2Tiryn2SZlx44Bz-15" value="Title/Page" style="" visible="0" parent="r0cno2Tiryn2SZlx44Bz-0" />
        <mxCell id="r0cno2Tiryn2SZlx44Bz-16" value="" style="group;fontSize=10;" vertex="1" connectable="0" parent="r0cno2Tiryn2SZlx44Bz-15">
          <mxGeometry x="120" y="120" width="560" height="45" as="geometry" />
        </mxCell>
        <mxCell id="r0cno2Tiryn2SZlx44Bz-17" value="&lt;font style=&quot;font-size: 12px&quot;&gt;Base Logical Module - System Context - Decisions - Technical&lt;/font&gt;" style="text;strokeColor=none;fillColor=none;html=1;fontSize=12;fontStyle=1;verticalAlign=middle;align=left;shadow=0;glass=0;comic=0;opacity=30;fontColor=#808080;" vertex="1" parent="r0cno2Tiryn2SZlx44Bz-16">
          <mxGeometry width="560" height="40" as="geometry" />
        </mxCell>
        <mxCell id="r0cno2Tiryn2SZlx44Bz-18" value="" style="line;strokeWidth=2;html=1;shadow=0;glass=0;comic=0;fillColor=none;fontSize=10;fontColor=#CCCCCC;labelBackgroundColor=none;strokeColor=#CCCCCC;" vertex="1" parent="r0cno2Tiryn2SZlx44Bz-16">
          <mxGeometry y="35" width="560" height="10" as="geometry" />
        </mxCell>
      </root>
    </mxGraphModel>
  </diagram>
</mxfile>
